<?xml version="1.0" encoding="utf-8"?>
<!-- Generator: Adobe Illustrator 24.2.0, SVG Export Plug-In . SVG Version: 6.00 Build 0)  -->
<svg version="1.1" id="레이어_1" xmlns="http://www.w3.org/2000/svg" xmlns:xlink="http://www.w3.org/1999/xlink" x="0px"
	 y="0px" viewBox="0 0 23.2 22.46" style="enable-background:new 0 0 23.2 22.46;" xml:space="preserve">
<style type="text/css">
	.st0{fill:#00A0CA;}
</style>
<g>
	<path class="st0" d="M8.29,22.29c0,0,0.08-4.31-0.47-5.91c-0.57-1.6-1.2-4.18-5.38-6.88C0.97,8.55,0.5,8.64,0.35,8.73
		c-0.16,0.08-0.38,0.48-0.34,2.21c0.05,1.74-0.08,6.51,1.95,8.61C4,21.65,5.58,22.15,8.29,22.29"/>
	<path class="st0" d="M11.6,10.93c3.28-5.24,8.22-7.09,8.75-7.26c0.47-0.14,0.7-0.29,0.74-0.68c0.04-0.37-0.56-1.17-2.3-1.99
		c-2.38-1.13-7.2-1-7.2-1S6.79-0.13,4.41,1c-1.74,0.82-2.35,1.62-2.3,1.99c0.04,0.38,0.27,0.54,0.74,0.68
		C3.38,3.83,8.33,5.68,11.6,10.93"/>
	<path class="st0" d="M11.6,22.46c0.86,0,1.66-0.04,2.38-0.09c0,0,0.09-3.88-0.15-5.32c-0.26-1.6-0.82-4.13-2.23-6.09
		c-1.41,1.95-1.96,4.48-2.22,6.09c-0.23,1.44-0.15,5.32-0.15,5.32C9.95,22.42,10.74,22.46,11.6,22.46"/>
	<path class="st0" d="M14.91,22.29c0,0-0.09-4.31,0.48-5.91c0.57-1.6,1.2-4.18,5.38-6.88c1.46-0.95,1.94-0.86,2.09-0.77
		c0.15,0.08,0.38,0.48,0.34,2.21c-0.04,1.74,0.09,6.51-1.95,8.61C19.2,21.65,17.62,22.15,14.91,22.29"/>
	<path class="st0" d="M1.45,4.96C1.15,4.9,0.96,4.61,0.96,4.29c0-0.39,0.31-0.7,0.7-0.7c0.06,0,0.18,0.02,0.28,0.06
		c0,0,3.14,1.42,5.12,4.04L7,7.77C4.35,5.69,1.45,4.96,1.45,4.96"/>
	<path class="st0" d="M0.75,6.57C0.45,6.5,0.23,6.24,0.22,5.92C0.21,5.54,0.5,5.2,0.89,5.2c0.09,0,0.22,0.02,0.31,0.06
		c0,0,3.17,1.29,5.15,3.71L6.29,9.03C3.53,7.07,0.75,6.57,0.75,6.57"/>
	<path class="st0" d="M0.61,8.33C0.32,8.26,0.11,8,0.1,7.7C0.08,7.33,0.37,6.99,0.75,6.99c0.02,0,0.15,0,0.27,0.04
		c0,0,3.05,1.25,4.64,3.17l-0.05,0.08C2.96,8.6,0.61,8.33,0.61,8.33"/>
	<path class="st0" d="M21.75,4.96c0.3-0.06,0.5-0.35,0.5-0.67c0-0.39-0.32-0.7-0.71-0.7c-0.06,0-0.18,0.02-0.27,0.06
		c0,0-3.15,1.42-5.13,4.04l0.05,0.08C18.85,5.69,21.75,4.96,21.75,4.96"/>
	<path class="st0" d="M22.46,6.57c0.29-0.07,0.51-0.34,0.52-0.65C23,5.54,22.69,5.2,22.31,5.2c-0.09,0-0.21,0.02-0.31,0.06
		c0,0-3.17,1.29-5.16,3.71l0.06,0.07C19.68,7.07,22.46,6.57,22.46,6.57"/>
	<path class="st0" d="M22.59,8.33C22.88,8.26,23.09,8,23.1,7.7c0.02-0.37-0.27-0.71-0.64-0.71c-0.04,0-0.15,0-0.28,0.04
		c0,0-3.06,1.25-4.65,3.17l0.05,0.08C20.24,8.6,22.59,8.33,22.59,8.33"/>
</g>
</svg>
