<svg width="150" height="28" viewBox="0 0 150 28" fill="none" xmlns="http://www.w3.org/2000/svg">
<path d="M62.6997 14.5371H36.4465V12.4084H47.6694V10.6605H40.2538C39.9336 10.6605 39.6308 10.6086 39.3366 10.4961C39.051 10.3836 38.8001 10.2365 38.5924 10.0548C38.3761 9.86446 38.2117 9.63948 38.0992 9.37989C37.9781 9.1203 37.9175 8.84341 37.9175 8.5492V3.91984H61.2287V5.92734H41.4306V8.64439H61.2374V10.6519H51.4854V12.3998H62.7084V14.5371H62.6997ZM37.7704 20.5509C37.7704 19.85 38.0819 19.2011 38.6963 18.578C39.3106 17.9637 40.1586 17.4272 41.2229 16.9686C42.2873 16.51 43.5419 16.1465 44.9783 15.8783C46.4147 15.6101 47.9463 15.4716 49.5731 15.4716C51.1999 15.4716 52.7314 15.6014 54.1678 15.8783C55.6129 16.1465 56.8589 16.51 57.9319 16.9686C58.9962 17.4272 59.8356 17.9637 60.4586 18.578C61.073 19.2011 61.3845 19.85 61.3845 20.5509C61.3845 21.2605 61.073 21.9268 60.4586 22.5411C59.8442 23.1555 58.9962 23.692 57.9319 24.1506C56.8676 24.6092 55.6129 24.9726 54.1678 25.2322C52.7314 25.4918 51.1999 25.6216 49.5731 25.6216C47.9463 25.6216 46.4147 25.4918 44.9783 25.2322C43.5419 24.9726 42.2873 24.6092 41.2229 24.1506C40.1586 23.692 39.3106 23.1555 38.6963 22.5411C38.0819 21.9268 37.7704 21.2605 37.7704 20.5509ZM57.6983 20.499C57.6983 20.075 57.4906 19.6683 57.058 19.2876C56.634 18.9069 56.0542 18.5694 55.3187 18.2838C54.5832 17.9983 53.7179 17.7733 52.7228 17.6176C51.7363 17.4532 50.6807 17.3753 49.5644 17.3753C48.4482 17.3753 47.3925 17.4532 46.4061 17.6176C45.411 17.7733 44.5457 17.9983 43.8102 18.2838C43.0747 18.5694 42.4949 18.9069 42.0796 19.2876C41.6556 19.6683 41.4393 20.075 41.4393 20.499C41.4393 20.9403 41.6469 21.347 42.0796 21.7191C42.5036 22.0912 43.0833 22.42 43.8102 22.7055C44.5457 22.9911 45.411 23.2161 46.4061 23.3805C47.3925 23.5449 48.4482 23.6228 49.5644 23.6228C50.6807 23.6228 51.7363 23.5449 52.7228 23.3805C53.7179 23.2247 54.5745 22.9911 55.3187 22.7055C56.0542 22.42 56.634 22.0912 57.058 21.7191C57.4906 21.347 57.6983 20.9403 57.6983 20.499ZM74.2082 3.34009C75.3937 3.34009 76.5099 3.60833 77.5656 4.15347C78.6126 4.69861 79.5212 5.43412 80.3086 6.36864C81.0874 7.31182 81.7017 8.41941 82.1517 9.68275C82.593 10.9547 82.818 12.3046 82.818 13.741C82.818 15.1774 82.593 16.5273 82.1517 17.7993C81.7017 19.0713 81.0874 20.1789 80.3086 21.1134C79.5298 22.0479 78.6213 22.7921 77.5656 23.3372C76.5099 23.8823 75.4023 24.1506 74.2082 24.1506C73.0228 24.1506 71.9065 23.8823 70.8595 23.3372C69.8038 22.8007 68.8953 22.0566 68.1165 21.1134C67.3377 20.1702 66.732 19.0713 66.2734 17.7993C65.8235 16.5273 65.6071 15.1774 65.6071 13.741C65.6071 12.3046 65.8321 10.9461 66.2734 9.68275C66.7234 8.41075 67.3377 7.30317 68.1165 6.36864C68.8953 5.43412 69.8038 4.69861 70.8595 4.15347C71.9065 3.60833 73.0141 3.34009 74.2082 3.34009ZM74.2082 22.0479C74.9178 22.0479 75.5927 21.8316 76.2157 21.3989C76.8387 20.9663 77.3839 20.3692 77.8425 19.6251C78.3011 18.8636 78.6645 17.9896 78.9328 16.9772C79.201 15.9735 79.3395 14.8919 79.3395 13.741C79.3395 12.5902 79.201 11.5085 78.9328 10.5048C78.6645 9.50103 78.3011 8.61843 77.8425 7.86561C77.3839 7.1128 76.8474 6.51574 76.2157 6.08309C75.5927 5.65044 74.9178 5.43412 74.2082 5.43412C73.4987 5.43412 72.8324 5.65044 72.218 6.08309C71.6037 6.51574 71.0585 7.10415 70.5913 7.86561C70.124 8.61843 69.7606 9.50103 69.4837 10.5048C69.2154 11.5085 69.0856 12.5902 69.0856 13.741C69.0856 14.8919 69.2154 15.9735 69.4837 16.9772C69.7606 17.981 70.124 18.8636 70.5913 19.6251C71.0585 20.3692 71.595 20.9663 72.218 21.3989C72.8324 21.8402 73.4987 22.0479 74.2082 22.0479ZM89.1606 3.59103V10.5221H92.7949V13.0574H89.1606V24.765H85.6908V3.59103H89.1606ZM102.261 17.4012C101.431 18.3877 100.47 19.2703 99.3798 20.0664C98.2896 20.8624 97.0522 21.5114 95.685 22.0219L94.7505 20.3C95.884 19.8414 96.8964 19.2011 97.7963 18.3963C98.6963 17.5829 99.4491 16.6571 100.063 15.6101C100.686 14.5717 101.154 13.4382 101.474 12.2181C101.794 10.998 101.958 9.76063 101.958 8.48863V6.15232H96.0398V4.02368H103.706C104.208 4.02368 104.65 4.20539 105.013 4.56882C105.385 4.93224 105.567 5.37355 105.567 5.87542V8.48863C105.567 9.50969 105.446 10.5048 105.212 11.4826C104.978 12.4604 104.632 13.4208 104.2 14.3467C104.719 15.5322 105.394 16.5965 106.216 17.5397C107.038 18.4829 108.05 19.2962 109.253 19.9885L108.111 21.996C107.046 21.4508 105.991 20.8019 104.961 20.0404C103.923 19.2876 103.023 18.405 102.261 17.4012ZM110.975 24.765V13.0661H107.168V10.5307H110.975V3.59103H114.177V24.765H110.975ZM116.054 3.59103H119.455V24.765H116.054V3.59103ZM131.335 3.34009C132.538 3.34009 133.663 3.5045 134.727 3.84196C135.792 4.17078 136.709 4.62073 137.496 5.17453C138.284 5.73697 138.907 6.3946 139.365 7.15607C139.824 7.91753 140.049 8.73092 140.049 9.59622C140.049 10.4615 139.824 11.2662 139.365 12.0191C138.907 12.7719 138.284 13.4295 137.496 13.9919C136.709 14.5457 135.792 14.987 134.727 15.3245C133.672 15.6533 132.538 15.8177 131.335 15.8177C130.133 15.8177 128.999 15.6533 127.943 15.3245C126.888 14.9957 125.962 14.5457 125.174 13.9919C124.387 13.4295 123.764 12.7805 123.305 12.0191C122.847 11.2662 122.622 10.4615 122.622 9.59622C122.622 8.73092 122.855 7.91753 123.305 7.15607C123.764 6.3946 124.387 5.73697 125.174 5.17453C125.962 4.62073 126.879 4.17078 127.943 3.84196C128.999 3.5045 130.133 3.34009 131.335 3.34009ZM125.218 17.3493H146.392V24.765H142.922V19.4866H125.218V17.3493ZM131.335 13.8016C132.071 13.8016 132.746 13.6891 133.378 13.4641C134.009 13.2478 134.563 12.9449 135.039 12.5555C135.515 12.1662 135.887 11.7162 136.155 11.2143C136.432 10.7038 136.562 10.15 136.562 9.56161C136.562 8.99051 136.432 8.43671 136.155 7.92619C135.887 7.407 135.515 6.95705 135.039 6.56766C134.572 6.17828 134.018 5.87542 133.378 5.65044C132.746 5.43412 132.062 5.32163 131.335 5.32163C130.609 5.32163 129.925 5.42546 129.293 5.65044C128.662 5.87542 128.108 6.17828 127.632 6.56766C127.156 6.95705 126.784 7.407 126.507 7.92619C126.239 8.43671 126.1 8.99051 126.1 9.56161C126.1 10.15 126.23 10.7038 126.507 11.2143C126.775 11.7162 127.147 12.1748 127.632 12.5555C128.099 12.9449 128.653 13.2478 129.293 13.4641C129.925 13.6891 130.609 13.8016 131.335 13.8016ZM146.392 16.311H142.922V3.59103H146.392V6.05713H150V8.08194H146.392V10.2971H150V12.3046H146.392V16.311Z" fill="#555555"/>
<path d="M10.0461 27.0926C10.0461 27.0926 10.15 21.8748 9.47504 19.9279C8.79145 17.981 8.02999 14.8572 2.95067 11.5864C1.18545 10.4442 0.597049 10.548 0.415336 10.6519C0.22497 10.7557 -0.0519267 11.2316 -8.59375e-06 13.3256C0.0519095 15.4283 -0.103845 21.2085 2.36226 23.7612C4.84568 26.3225 6.758 26.9282 10.0461 27.0926Z" fill="#555555"/>
<path d="M14.0525 13.3256C18.0242 6.97431 24.0034 4.73318 24.6611 4.53417C25.2235 4.36976 25.5091 4.17939 25.5523 3.72078C25.6043 3.27083 24.8774 2.31034 22.7747 1.30659C19.8933 -0.0605852 14.0525 0.0951691 14.0525 0.0951691C14.0525 0.0951691 8.22035 -0.0692382 5.3389 1.29794C3.23621 2.30169 2.50071 3.26217 2.55263 3.71213C2.60454 4.17939 2.88144 4.3611 3.44389 4.52551C4.10152 4.73318 10.0894 6.97431 14.0525 13.3256Z" fill="#555555"/>
<path d="M14.0525 27.2916C15.0995 27.2916 16.06 27.2483 16.9339 27.1878C16.9339 27.1878 17.0378 22.4892 16.7522 20.7499C16.4321 18.8117 15.7658 15.7398 14.0525 13.3776C12.3478 15.7398 11.6816 18.8117 11.3614 20.7499C11.0845 22.4978 11.1797 27.1878 11.1797 27.1878C12.0536 27.2483 13.0228 27.2916 14.0525 27.2916Z" fill="#555555"/>
<path d="M18.0588 27.0926C18.0588 27.0926 17.955 21.8748 18.6386 19.9279C19.3308 17.981 20.0923 14.8572 25.163 11.5864C26.9282 10.4442 27.5166 10.548 27.6983 10.6519C27.8887 10.7557 28.1569 11.2316 28.105 13.3256C28.0531 15.4283 28.2175 21.2085 25.7427 23.7612C23.2679 26.3225 21.347 26.9282 18.0588 27.0926Z" fill="#555555"/>
<path d="M1.75654 6.09168C1.40177 6.02245 1.15948 5.66768 1.15948 5.27829C1.15948 4.81103 1.54022 4.4303 1.99883 4.4303C2.0767 4.4303 2.22381 4.4476 2.33629 4.49952C2.33629 4.49952 6.14362 6.23013 8.54916 9.38848L8.48859 9.48366C5.26967 6.97428 1.75654 6.09168 1.75654 6.09168Z" fill="#555555"/>
<path d="M0.908569 8.05588C0.545143 7.9607 0.276899 7.64054 0.268246 7.25981C0.25094 6.79254 0.605714 6.3772 1.07298 6.3772C1.17681 6.3772 1.33257 6.40316 1.45371 6.45507C1.45371 6.45507 5.28699 8.01262 7.69253 10.946L7.62331 11.0239C4.26594 8.65294 0.908569 8.05588 0.908569 8.05588Z" fill="#555555"/>
<path d="M0.735499 10.176C0.389379 10.0894 0.129788 9.77792 0.121135 9.4145C0.103829 8.95589 0.44995 8.54919 0.90856 8.54919C0.934519 8.54919 1.08162 8.55785 1.23737 8.60977C1.23737 8.60977 4.93221 10.1154 6.86183 12.4517L6.80126 12.5555C3.58234 10.5048 0.735499 10.176 0.735499 10.176Z" fill="#555555"/>
<path d="M26.3484 6.09168C26.7118 6.02245 26.9541 5.65903 26.9541 5.27829C26.9541 4.81103 26.5734 4.4303 26.0975 4.4303C26.0282 4.4303 25.8811 4.4476 25.76 4.49952C25.76 4.49952 21.944 6.23013 19.5558 9.38848L19.6164 9.48366C22.8353 6.97428 26.3484 6.09168 26.3484 6.09168Z" fill="#555555"/>
<path d="M27.2137 8.0559C27.5685 7.96937 27.8367 7.6492 27.8454 7.26847C27.8627 6.80121 27.4993 6.38586 27.032 6.38586C26.9282 6.38586 26.7724 6.41182 26.6513 6.46374C26.6513 6.46374 22.818 8.02128 20.4038 10.9547L20.473 11.0325C23.8391 8.65295 27.2137 8.0559 27.2137 8.0559Z" fill="#555555"/>
<path d="M27.3695 10.176C27.7156 10.0894 27.9752 9.77792 27.9838 9.4145C28.0098 8.95589 27.655 8.54919 27.2051 8.54919C27.1618 8.54919 27.0234 8.55785 26.8676 8.60977C26.8676 8.60977 23.1641 10.1154 21.2345 12.4517L21.2951 12.5555C24.514 10.5048 27.3695 10.176 27.3695 10.176Z" fill="#555555"/>
</svg>
