<svg id="레이어_1" data-name="레이어 1" xmlns="http://www.w3.org/2000/svg" viewBox="0 0 173.35 31.54"><defs><style>.cls-1{fill:#fff;}.cls-2{fill:#00a0ca;}</style></defs><path class="cls-1" d="M72.46,16.8H42.12V14.33h13v-2H46.52a2.87,2.87,0,0,1-1.05-.19,3.12,3.12,0,0,1-.87-.51,2.46,2.46,0,0,1-.57-.78,2.28,2.28,0,0,1-.21-1V4.53H70.76V6.85H47.88V10H70.76v2.32H59.5v2h13Zm-28.81,7a3.2,3.2,0,0,1,1.07-2.27,9,9,0,0,1,2.92-1.86A21.14,21.14,0,0,1,52,18.35a30.88,30.88,0,0,1,10.62,0A21.05,21.05,0,0,1,67,19.62a9,9,0,0,1,2.92,1.86,3.2,3.2,0,0,1,1.07,2.27,3.27,3.27,0,0,1-1.07,2.31A9.3,9.3,0,0,1,67,27.92a20.5,20.5,0,0,1-4.35,1.25,29.85,29.85,0,0,1-5.31.45A29.85,29.85,0,0,1,52,29.17a20.57,20.57,0,0,1-4.34-1.25,9.3,9.3,0,0,1-2.92-1.86,3.27,3.27,0,0,1-1.07-2.31m23-.06A1.89,1.89,0,0,0,66,22.3a6.53,6.53,0,0,0-2-1.16,14.53,14.53,0,0,0-3-.77,22.17,22.17,0,0,0-3.65-.28,22.43,22.43,0,0,0-3.65.28,14.87,14.87,0,0,0-3,.77,6.47,6.47,0,0,0-2,1.16,1.9,1.9,0,0,0-.74,1.39,1.87,1.87,0,0,0,.74,1.41,6.67,6.67,0,0,0,2,1.15,14.87,14.87,0,0,0,3,.77,22.43,22.43,0,0,0,3.65.28A22.17,22.17,0,0,0,60.94,27a14.53,14.53,0,0,0,3-.77,6.73,6.73,0,0,0,2-1.15,1.86,1.86,0,0,0,.73-1.41M85.76,3.86a8.29,8.29,0,0,1,3.87.94A10.26,10.26,0,0,1,92.8,7.36a12.53,12.53,0,0,1,2.13,3.84,14.15,14.15,0,0,1,.77,4.69,14.2,14.2,0,0,1-.77,4.69,12.36,12.36,0,0,1-2.13,3.83A10,10,0,0,1,89.63,27a8.46,8.46,0,0,1-7.75,0,10,10,0,0,1-3.17-2.57,12.55,12.55,0,0,1-2.12-3.83,14,14,0,0,1-.78-4.69,13.9,13.9,0,0,1,.78-4.69,12.72,12.72,0,0,1,2.12-3.84A10.26,10.26,0,0,1,81.88,4.8a8.3,8.3,0,0,1,3.88-.94m0,21.62a4,4,0,0,0,2.32-.74,6.76,6.76,0,0,0,1.87-2,11.82,11.82,0,0,0,1.27-3.06,14.46,14.46,0,0,0,.46-3.74,14.46,14.46,0,0,0-.46-3.74A11.61,11.61,0,0,0,90,9.1,6.58,6.58,0,0,0,88.08,7a3.95,3.95,0,0,0-4.63,0A6.83,6.83,0,0,0,81.58,9.1a11.62,11.62,0,0,0-1.29,3.05,14.46,14.46,0,0,0-.46,3.74,14.46,14.46,0,0,0,.46,3.74,11.84,11.84,0,0,0,1.29,3.06,7,7,0,0,0,1.87,2,4,4,0,0,0,2.31.74M103,4.15v8h4.2V15.1H103V28.62H99V4.15Zm15.14,16a18.9,18.9,0,0,1-3.33,3.09,17.16,17.16,0,0,1-4.27,2.25l-1.08-2a11.79,11.79,0,0,0,3.52-2.2A13.55,13.55,0,0,0,115.64,18a14.89,14.89,0,0,0,1.63-3.91,16.47,16.47,0,0,0,.56-4.32V7.12H111V4.65h8.87a2,2,0,0,1,1.5.63A2,2,0,0,1,122,6.79v3a15,15,0,0,1-.41,3.47,17.43,17.43,0,0,1-1.18,3.31,14.43,14.43,0,0,0,2.33,3.69,13.8,13.8,0,0,0,3.51,2.83l-1.32,2.32a26.85,26.85,0,0,1-3.64-2.26,15.29,15.29,0,0,1-3.11-3.06m10.07,8.51V15.1h-4.4V12.16h4.4v-8H132V28.62Zm5.87-24.47h3.93V28.62h-3.93Zm17.66-.29a13.18,13.18,0,0,1,3.92.57A11.46,11.46,0,0,1,158.9,6a7.81,7.81,0,0,1,2.16,2.29,5.45,5.45,0,0,1,.79,2.81,5.38,5.38,0,0,1-.79,2.81,7.91,7.91,0,0,1-2.16,2.28,11.44,11.44,0,0,1-3.2,1.53,13.76,13.76,0,0,1-7.84,0,11.25,11.25,0,0,1-3.19-1.53,7.77,7.77,0,0,1-2.16-2.28,5.28,5.28,0,0,1-.79-2.81,5.36,5.36,0,0,1,.79-2.81A7.68,7.68,0,0,1,144.67,6a11.26,11.26,0,0,1,3.19-1.54,13.13,13.13,0,0,1,3.92-.57m-7.07,16.19h24.47v8.57h-4v-6.1H144.71Zm7.07-4.1a7,7,0,0,0,2.36-.39,5.93,5.93,0,0,0,1.92-1.05A5.11,5.11,0,0,0,157.35,13a4.1,4.1,0,0,0,0-3.81,5.07,5.07,0,0,0-1.29-1.57,6.12,6.12,0,0,0-1.92-1,7.52,7.52,0,0,0-4.72,0,6.35,6.35,0,0,0-1.92,1,5.07,5.07,0,0,0-1.29,1.57,4.1,4.1,0,0,0,0,3.81,5.11,5.11,0,0,0,1.29,1.55,6.14,6.14,0,0,0,1.92,1.05,7,7,0,0,0,2.36.39m17.4,2.9h-4V4.15h4V7h4.17V9.34h-4.17V11.9h4.17v2.32h-4.17Z"/><path class="cls-2" d="M11.61,31.31s.12-6-.66-8.27S9.27,17.18,3.41,13.4c-2-1.33-2.72-1.2-2.93-1.08S0,13,0,15.41s-.12,9.11,2.73,12.06,5.07,3.65,8.87,3.84"/><path class="cls-2" d="M16.24,15.4A25.14,25.14,0,0,1,28.5,5.24c.65-.2,1-.41,1-1s-.78-1.63-3.22-2.79C23-.08,16.24.1,16.24.1S9.5-.08,6.17,1.5C3.74,2.66,2.89,3.77,3,4.29s.38.75,1,1A25.14,25.14,0,0,1,16.24,15.4"/><path class="cls-2" d="M16.24,31.54c1.21,0,2.32-.05,3.33-.12A64.9,64.9,0,0,0,19.36,24a20.54,20.54,0,0,0-3.12-8.52A20.65,20.65,0,0,0,13.13,24a67.36,67.36,0,0,0-.21,7.44c1,.07,2.13.12,3.32.12"/><path class="cls-2" d="M20.87,31.31s-.12-6,.67-8.27,1.67-5.86,7.54-9.64c2-1.33,2.72-1.2,2.93-1.08s.53.67.46,3.09.13,9.11-2.73,12.06-5.07,3.65-8.87,3.84"/><path class="cls-2" d="M2,7a.93.93,0,0,1-.69-.94,1,1,0,0,1,1-1,1,1,0,0,1,.39.08,21.17,21.17,0,0,1,7.18,5.65L9.81,11A23.39,23.39,0,0,0,2,7"/><path class="cls-2" d="M1.05,9.31a1,1,0,0,1-.74-.92,1,1,0,0,1,.93-1,1.15,1.15,0,0,1,.44.09,20.53,20.53,0,0,1,7.21,5.19l-.08.1A21.43,21.43,0,0,0,1.05,9.31"/><path class="cls-2" d="M.85,11.76a1,1,0,0,1,.2-1.87,1.31,1.31,0,0,1,.38.07s4.27,1.74,6.5,4.43l-.07.12a18.38,18.38,0,0,0-7-2.75"/><path class="cls-2" d="M30.45,7a.92.92,0,0,0,.7-.94,1,1,0,0,0-1-1,1.08,1.08,0,0,0-.39.08,21.09,21.09,0,0,0-7.17,5.65l.07.11A23.29,23.29,0,0,1,30.45,7"/><path class="cls-2" d="M31.45,9.31a1,1,0,0,0,.73-.92,1,1,0,0,0-.94-1,1.23,1.23,0,0,0-.44.09,20.62,20.62,0,0,0-7.21,5.19l.08.1a21.44,21.44,0,0,1,7.78-3.44"/><path class="cls-2" d="M31.63,11.76a1,1,0,0,0,.72-.87.93.93,0,0,0-.9-1,1.31,1.31,0,0,0-.39.07s-4.28,1.74-6.51,4.43l.08.12a18.25,18.25,0,0,1,7-2.75"/></svg>