<?xml version="1.0" encoding="utf-8"?>
<!-- Generator: Adobe Illustrator 24.2.0, SVG Export Plug-In . SVG Version: 6.00 Build 0)  -->
<svg version="1.1" id="레이어_1" xmlns="http://www.w3.org/2000/svg" xmlns:xlink="http://www.w3.org/1999/xlink" x="0px"
	 y="0px" viewBox="0 0 173.35 31.54" style="enable-background:new 0 0 173.35 31.54;" xml:space="preserve">
<style type="text/css">
	.st0{fill:#00A0CA;}
</style>
<g>
	<path d="M72.46,16.8H42.12v-2.46h12.97v-2.02h-8.57c-0.37,0-0.72-0.06-1.06-0.19c-0.33-0.13-0.62-0.3-0.86-0.51
		c-0.25-0.22-0.44-0.48-0.57-0.78c-0.14-0.3-0.21-0.62-0.21-0.96V4.53h26.94v2.32H47.88v3.14h22.89v2.32H59.5v2.02h12.97V16.8z
		 M43.65,23.75c0-0.81,0.36-1.56,1.07-2.28c0.71-0.71,1.69-1.33,2.92-1.86c1.23-0.53,2.68-0.95,4.34-1.26
		c1.66-0.31,3.43-0.47,5.31-0.47c1.88,0,3.65,0.15,5.31,0.47c1.67,0.31,3.11,0.73,4.35,1.26c1.23,0.53,2.2,1.15,2.92,1.86
		c0.71,0.72,1.07,1.47,1.07,2.28c0,0.82-0.36,1.59-1.07,2.3c-0.71,0.71-1.69,1.33-2.92,1.86c-1.23,0.53-2.68,0.95-4.35,1.25
		c-1.66,0.3-3.43,0.45-5.31,0.45c-1.88,0-3.65-0.15-5.31-0.45c-1.66-0.3-3.11-0.72-4.34-1.25c-1.23-0.53-2.21-1.15-2.92-1.86
		C44.01,25.34,43.65,24.57,43.65,23.75 M66.68,23.69c0-0.49-0.24-0.96-0.74-1.4c-0.49-0.44-1.16-0.83-2.01-1.16
		c-0.85-0.33-1.85-0.59-3-0.77c-1.14-0.19-2.36-0.28-3.65-0.28c-1.29,0-2.51,0.09-3.65,0.28c-1.15,0.18-2.15,0.44-3,0.77
		c-0.85,0.33-1.52,0.72-2,1.16c-0.49,0.44-0.74,0.91-0.74,1.4c0,0.51,0.24,0.98,0.74,1.41c0.49,0.43,1.16,0.81,2,1.14
		c0.85,0.33,1.85,0.59,3,0.78c1.14,0.19,2.36,0.28,3.65,0.28c1.29,0,2.51-0.09,3.65-0.28c1.15-0.18,2.14-0.45,3-0.78
		c0.85-0.33,1.52-0.71,2.01-1.14C66.44,24.67,66.68,24.2,66.68,23.69 M85.76,3.86c1.37,0,2.66,0.31,3.88,0.94
		c1.21,0.63,2.26,1.48,3.17,2.56c0.9,1.09,1.61,2.37,2.13,3.83c0.51,1.47,0.77,3.03,0.77,4.69c0,1.66-0.26,3.22-0.77,4.69
		c-0.52,1.47-1.23,2.75-2.13,3.83c-0.9,1.08-1.95,1.94-3.17,2.57c-1.22,0.63-2.5,0.94-3.88,0.94c-1.37,0-2.66-0.31-3.87-0.94
		c-1.22-0.62-2.27-1.48-3.17-2.57c-0.9-1.09-1.6-2.36-2.13-3.83c-0.52-1.47-0.77-3.03-0.77-4.69c0-1.66,0.26-3.23,0.77-4.69
		c0.52-1.47,1.23-2.75,2.13-3.83c0.9-1.08,1.95-1.93,3.17-2.56C83.1,4.17,84.38,3.86,85.76,3.86 M85.76,25.48
		c0.82,0,1.6-0.25,2.32-0.75c0.72-0.5,1.35-1.19,1.88-2.05c0.53-0.88,0.95-1.89,1.26-3.06c0.31-1.16,0.47-2.41,0.47-3.74
		c0-1.33-0.16-2.58-0.47-3.74c-0.31-1.16-0.73-2.18-1.26-3.05c-0.53-0.87-1.15-1.56-1.88-2.06c-0.72-0.5-1.5-0.75-2.32-0.75
		c-0.82,0-1.59,0.25-2.3,0.75c-0.71,0.5-1.34,1.18-1.88,2.06c-0.54,0.87-0.96,1.89-1.28,3.05c-0.31,1.16-0.46,2.41-0.46,3.74
		c0,1.33,0.15,2.58,0.46,3.74c0.32,1.16,0.74,2.18,1.28,3.06c0.54,0.86,1.16,1.55,1.88,2.05C84.17,25.24,84.94,25.48,85.76,25.48
		 M103.04,4.15v8.01h4.2v2.93h-4.2v13.53h-4.01V4.15H103.04z M118.18,20.11c-0.96,1.14-2.07,2.16-3.33,3.08
		c-1.26,0.92-2.69,1.67-4.27,2.26l-1.08-1.99c1.31-0.53,2.48-1.27,3.52-2.2c1.04-0.94,1.91-2.01,2.62-3.22
		c0.72-1.2,1.26-2.51,1.63-3.92c0.37-1.41,0.56-2.84,0.56-4.31v-2.7h-6.84V4.65h8.86c0.58,0,1.09,0.21,1.51,0.63
		C121.79,5.7,122,6.21,122,6.79v3.02c0,1.18-0.14,2.33-0.41,3.46c-0.27,1.13-0.67,2.24-1.17,3.31c0.6,1.37,1.38,2.6,2.33,3.69
		c0.95,1.09,2.12,2.03,3.51,2.83l-1.32,2.32c-1.23-0.63-2.45-1.38-3.64-2.26C120.1,22.29,119.06,21.27,118.18,20.11 M128.25,28.62
		V15.1h-4.4v-2.93h4.4V4.15h3.7v24.47H128.25z M134.12,4.15h3.93v24.47h-3.93V4.15z M151.78,3.86c1.39,0,2.69,0.19,3.92,0.58
		c1.23,0.38,2.29,0.9,3.2,1.54c0.91,0.65,1.63,1.41,2.16,2.29c0.53,0.88,0.79,1.82,0.79,2.82c0,1-0.26,1.93-0.79,2.8
		c-0.53,0.87-1.25,1.63-2.16,2.28c-0.91,0.64-1.97,1.15-3.2,1.54c-1.22,0.38-2.53,0.57-3.92,0.57c-1.39,0-2.7-0.19-3.92-0.57
		c-1.22-0.38-2.29-0.9-3.2-1.54c-0.91-0.65-1.63-1.4-2.16-2.28c-0.53-0.87-0.79-1.8-0.79-2.8c0-1,0.27-1.94,0.79-2.82
		c0.53-0.88,1.25-1.64,2.16-2.29c0.91-0.64,1.97-1.16,3.2-1.54C149.08,4.05,150.39,3.86,151.78,3.86 M144.71,20.05h24.47v8.57h-4.01
		v-6.1h-20.46V20.05z M151.78,15.95c0.85,0,1.63-0.13,2.36-0.39c0.73-0.25,1.37-0.6,1.92-1.05c0.55-0.45,0.98-0.97,1.29-1.55
		c0.32-0.59,0.47-1.23,0.47-1.91c0-0.66-0.15-1.3-0.47-1.89c-0.31-0.6-0.74-1.12-1.29-1.57c-0.54-0.45-1.18-0.8-1.92-1.06
		c-0.73-0.25-1.52-0.38-2.36-0.38c-0.84,0-1.63,0.12-2.36,0.38c-0.73,0.26-1.37,0.61-1.92,1.06c-0.55,0.45-0.98,0.97-1.3,1.57
		c-0.31,0.59-0.47,1.23-0.47,1.89c0,0.68,0.15,1.32,0.47,1.91c0.31,0.58,0.74,1.11,1.3,1.55c0.54,0.45,1.18,0.8,1.92,1.05
		C150.15,15.82,150.94,15.95,151.78,15.95 M169.18,18.85h-4.01V4.15h4.01V7h4.17v2.34h-4.17v2.56h4.17v2.32h-4.17V18.85z"/>
	<g>
		<path class="st0" d="M11.61,31.31c0,0,0.12-6.03-0.66-8.28c-0.79-2.25-1.67-5.86-7.54-9.64c-2.04-1.32-2.72-1.2-2.93-1.08
			c-0.22,0.12-0.54,0.67-0.48,3.09c0.06,2.43-0.12,9.11,2.73,12.06C5.6,30.42,7.81,31.12,11.61,31.31"/>
		<path class="st0" d="M16.24,15.4c4.59-7.34,11.5-9.93,12.26-10.16c0.65-0.19,0.98-0.41,1.03-0.94c0.06-0.52-0.78-1.63-3.21-2.79
			c-3.33-1.58-10.08-1.4-10.08-1.4S9.5-0.08,6.17,1.5C3.74,2.66,2.89,3.77,2.95,4.29c0.06,0.54,0.38,0.75,1.03,0.94
			C4.74,5.47,11.66,8.06,16.24,15.4"/>
		<path class="st0" d="M16.24,31.54c1.21,0,2.32-0.05,3.33-0.12c0,0,0.12-5.43-0.21-7.44c-0.37-2.24-1.14-5.79-3.12-8.52
			c-1.97,2.73-2.74,6.28-3.11,8.52c-0.32,2.02-0.21,7.44-0.21,7.44C13.93,31.49,15.05,31.54,16.24,31.54"/>
		<path class="st0" d="M20.87,31.31c0,0-0.12-6.03,0.67-8.28c0.8-2.25,1.68-5.86,7.54-9.64c2.04-1.32,2.72-1.2,2.93-1.08
			c0.22,0.12,0.53,0.67,0.47,3.09c-0.06,2.43,0.13,9.11-2.73,12.06C26.89,30.42,24.67,31.12,20.87,31.31"/>
		<path class="st0" d="M2.03,7.04C1.62,6.96,1.34,6.55,1.34,6.1c0-0.54,0.44-0.98,0.97-0.98c0.09,0,0.26,0.02,0.39,0.08
			c0,0,4.4,2,7.18,5.65l-0.07,0.11C6.09,8.06,2.03,7.04,2.03,7.04"/>
		<path class="st0" d="M1.05,9.31C0.63,9.2,0.32,8.83,0.31,8.39C0.29,7.85,0.7,7.37,1.24,7.37c0.12,0,0.3,0.03,0.44,0.09
			c0,0,4.43,1.8,7.21,5.19l-0.08,0.09C4.93,10,1.05,9.31,1.05,9.31"/>
		<path class="st0" d="M0.85,11.76c-0.4-0.1-0.7-0.46-0.71-0.88c-0.02-0.53,0.38-1,0.91-1c0.03,0,0.2,0.01,0.38,0.07
			c0,0,4.27,1.74,6.5,4.44l-0.07,0.12C4.14,12.14,0.85,11.76,0.85,11.76"/>
		<path class="st0" d="M30.45,7.04c0.42-0.08,0.7-0.5,0.7-0.94c0-0.54-0.44-0.98-0.99-0.98c-0.08,0-0.25,0.02-0.39,0.08
			c0,0-4.41,2-7.17,5.65l0.07,0.11C26.39,8.06,30.45,7.04,30.45,7.04"/>
		<path class="st0" d="M31.45,9.31c0.41-0.1,0.72-0.47,0.73-0.91c0.02-0.54-0.4-1.02-0.94-1.02c-0.12,0-0.3,0.03-0.44,0.09
			c0,0-4.43,1.8-7.22,5.19l0.08,0.09C27.55,10,31.45,9.31,31.45,9.31"/>
		<path class="st0" d="M31.63,11.76c0.4-0.1,0.7-0.46,0.71-0.88c0.03-0.53-0.38-1-0.9-1c-0.05,0-0.21,0.01-0.39,0.07
			c0,0-4.28,1.74-6.51,4.44l0.07,0.12C28.33,12.14,31.63,11.76,31.63,11.76"/>
	</g>
</g>
</svg>
