<svg width="32" height="32" viewBox="0 0 32 32" fill="none" xmlns="http://www.w3.org/2000/svg">
<path d="M29.734 31.3473C30.2222 31.8354 31.0137 31.8354 31.5018 31.3473C31.99 30.8591 31.99 30.0676 31.5018 29.5795L29.734 31.3473ZM22.221 6.15651C26.6144 10.55 26.6144 17.673 22.221 22.0665L23.9888 23.8343C29.3585 18.4645 29.3585 9.75851 23.9888 4.38879L22.221 6.15651ZM22.221 22.0665C17.8277 26.4599 10.7045 26.4599 6.31117 22.0665L4.54342 23.8343C9.91304 29.2039 18.6192 29.2039 23.9888 23.8343L22.221 22.0665ZM6.31117 22.0665C1.91775 17.673 1.91775 10.55 6.31117 6.15651L4.54342 4.38879C-0.826321 9.75851 -0.826321 18.4645 4.54342 23.8343L6.31117 22.0665ZM6.31117 6.15651C10.7045 1.76316 17.8277 1.76316 22.221 6.15651L23.9888 4.38879C18.6192 -0.980914 9.91304 -0.980914 4.54342 4.38879L6.31117 6.15651ZM31.5018 29.5795L23.5469 21.6245L21.7792 23.3923L29.734 31.3473L31.5018 29.5795Z" fill="black"/>
</svg>
